<svg width="960" height="640" viewBox="0 0 960 640" fill="none" xmlns="http://www.w3.org/2000/svg">
  <rect width="960" height="640" rx="28" fill="#020617"/>
  <circle cx="780" cy="90" r="250" fill="#8B5CF6" opacity=".2"/>
  <circle cx="120" cy="560" r="280" fill="#22D3EE" opacity=".15"/>
  <rect x="56" y="54" width="848" height="532" rx="28" fill="#08111F" fill-opacity=".93" stroke="#67E8F9" stroke-opacity=".18"/>
  <rect x="92" y="92" width="776" height="76" rx="22" fill="#0F172A" stroke="#FFFFFF" stroke-opacity=".08"/>
  <text x="126" y="140" fill="#F8FAFC" font-family="Arial" font-size="30" font-weight="900">Admin Command Center</text>
  <rect x="700" y="112" width="124" height="34" rx="17" fill="#8B5CF6" fill-opacity=".22" stroke="#C4B5FD" stroke-opacity=".32"/>
  <text x="728" y="134" fill="#DDD6FE" font-family="Arial" font-size="14" font-weight="800">Q4 LIVE</text>
  <rect x="92" y="198" width="180" height="316" rx="24" fill="#0F172A" stroke="#FFFFFF" stroke-opacity=".08"/>
  <rect x="122" y="232" width="98" height="16" rx="8" fill="#22D3EE"/>
  <rect x="122" y="278" width="112" height="12" rx="6" fill="#94A3B8" opacity=".35"/>
  <rect x="122" y="314" width="82" height="12" rx="6" fill="#94A3B8" opacity=".35"/>
  <rect x="122" y="350" width="126" height="12" rx="6" fill="#94A3B8" opacity=".35"/>
  <rect x="122" y="436" width="112" height="42" rx="21" fill="#22D3EE"/>
  <rect x="304" y="198" width="260" height="146" rx="24" fill="#0F172A" stroke="#FFFFFF" stroke-opacity=".08"/>
  <text x="334" y="246" fill="#94A3B8" font-family="Arial" font-size="16">MRR</text>
  <text x="334" y="298" fill="#F8FAFC" font-family="Arial" font-size="44" font-weight="900">$92.4k</text>
  <rect x="596" y="198" width="272" height="146" rx="24" fill="#0F172A" stroke="#FFFFFF" stroke-opacity=".08"/>
  <text x="626" y="246" fill="#94A3B8" font-family="Arial" font-size="16">Conversion</text>
  <text x="626" y="298" fill="#F8FAFC" font-family="Arial" font-size="44" font-weight="900">18.7%</text>
  <rect x="304" y="374" width="564" height="140" rx="24" fill="#0F172A" stroke="#FFFFFF" stroke-opacity=".08"/>
  <path d="M340 470 C386 420 430 492 480 438 C526 388 572 456 626 406 C682 354 720 420 828 374" stroke="#22D3EE" stroke-width="8" stroke-linecap="round"/>
  <path d="M340 488 C390 464 428 506 484 478 C540 450 576 506 634 472 C704 432 742 458 828 420" stroke="#8B5CF6" stroke-width="8" stroke-linecap="round" opacity=".75"/>
</svg>
