<svg width="960" height="640" viewBox="0 0 960 640" fill="none" xmlns="http://www.w3.org/2000/svg">
  <rect width="960" height="640" rx="28" fill="#020617"/>
  <circle cx="180" cy="110" r="240" fill="#3B82F6" opacity=".17"/>
  <circle cx="820" cy="480" r="260" fill="#22D3EE" opacity=".16"/>
  <rect x="54" y="56" width="852" height="528" rx="28" fill="#08111F" fill-opacity=".93" stroke="#A78BFA" stroke-opacity=".2"/>
  <rect x="92" y="96" width="360" height="448" rx="24" fill="#F8FAFC"/>
  <rect x="126" y="132" width="132" height="18" rx="9" fill="#0F172A"/>
  <rect x="126" y="178" width="238" height="12" rx="6" fill="#CBD5E1"/>
  <rect x="126" y="210" width="194" height="12" rx="6" fill="#CBD5E1"/>
  <rect x="126" y="266" width="286" height="2" fill="#CBD5E1"/>
  <rect x="126" y="300" width="258" height="16" rx="8" fill="#64748B"/>
  <rect x="126" y="340" width="286" height="2" fill="#CBD5E1"/>
  <rect x="126" y="374" width="124" height="16" rx="8" fill="#64748B"/>
  <rect x="288" y="374" width="96" height="16" rx="8" fill="#64748B"/>
  <rect x="126" y="440" width="286" height="56" rx="14" fill="#22D3EE"/>
  <text x="179" y="476" fill="#020617" font-family="Arial" font-size="20" font-weight="900">Aprobado SET</text>
  <rect x="492" y="96" width="374" height="122" rx="24" fill="#0F172A" stroke="#FFFFFF" stroke-opacity=".08"/>
  <text x="524" y="144" fill="#F8FAFC" font-family="Arial" font-size="30" font-weight="900">Facturacion Electronica</text>
  <text x="524" y="180" fill="#94A3B8" font-family="Arial" font-size="18">Documentos, timbrado y trazabilidad</text>
  <rect x="492" y="248" width="174" height="126" rx="22" fill="#0F172A" stroke="#FFFFFF" stroke-opacity=".08"/>
  <text x="522" y="295" fill="#94A3B8" font-family="Arial" font-size="16">Emitidas</text>
  <text x="522" y="342" fill="#F8FAFC" font-family="Arial" font-size="40" font-weight="900">12.8k</text>
  <rect x="692" y="248" width="174" height="126" rx="22" fill="#0F172A" stroke="#FFFFFF" stroke-opacity=".08"/>
  <text x="722" y="295" fill="#94A3B8" font-family="Arial" font-size="16">Errores</text>
  <text x="722" y="342" fill="#86EFAC" font-family="Arial" font-size="40" font-weight="900">0.3%</text>
  <rect x="492" y="404" width="374" height="140" rx="22" fill="#0F172A" stroke="#FFFFFF" stroke-opacity=".08"/>
  <circle cx="542" cy="454" r="14" fill="#34D399"/>
  <rect x="574" y="444" width="224" height="14" rx="7" fill="#CBD5E1" opacity=".52"/>
  <circle cx="542" cy="500" r="14" fill="#22D3EE"/>
  <rect x="574" y="490" width="190" height="14" rx="7" fill="#CBD5E1" opacity=".42"/>
</svg>
