<svg width="960" height="640" viewBox="0 0 960 640" fill="none" xmlns="http://www.w3.org/2000/svg">
  <rect width="960" height="640" rx="28" fill="#020617"/>
  <circle cx="120" cy="80" r="220" fill="#22D3EE" opacity=".18"/>
  <circle cx="820" cy="60" r="260" fill="#8B5CF6" opacity=".2"/>
  <rect x="56" y="52" width="848" height="536" rx="28" fill="#08111F" fill-opacity=".92" stroke="#67E8F9" stroke-opacity=".2"/>
  <rect x="92" y="94" width="180" height="452" rx="22" fill="#0F172A" stroke="#FFFFFF" stroke-opacity=".08"/>
  <rect x="116" y="128" width="90" height="16" rx="8" fill="#E2E8F0"/>
  <rect x="116" y="176" width="120" height="14" rx="7" fill="#22D3EE" opacity=".75"/>
  <rect x="116" y="214" width="96" height="14" rx="7" fill="#94A3B8" opacity=".35"/>
  <rect x="116" y="252" width="130" height="14" rx="7" fill="#94A3B8" opacity=".35"/>
  <rect x="116" y="290" width="78" height="14" rx="7" fill="#94A3B8" opacity=".35"/>
  <rect x="116" y="470" width="118" height="40" rx="20" fill="#22D3EE"/>
  <text x="138" y="497" fill="#020617" font-family="Arial" font-size="16" font-weight="800">Checkout</text>
  <rect x="304" y="94" width="560" height="112" rx="24" fill="#0F172A" stroke="#FFFFFF" stroke-opacity=".08"/>
  <text x="334" y="138" fill="#F8FAFC" font-family="Arial" font-size="28" font-weight="800">POS Realtime</text>
  <text x="334" y="172" fill="#94A3B8" font-family="Arial" font-size="18">Ventas, caja e inventario sincronizados</text>
  <rect x="718" y="126" width="104" height="38" rx="19" fill="#10B981" fill-opacity=".18" stroke="#34D399" stroke-opacity=".35"/>
  <text x="742" y="151" fill="#86EFAC" font-family="Arial" font-size="14" font-weight="800">LIVE</text>
  <rect x="304" y="234" width="260" height="142" rx="22" fill="#0F172A" stroke="#FFFFFF" stroke-opacity=".08"/>
  <text x="330" y="276" fill="#94A3B8" font-family="Arial" font-size="16">Ventas hoy</text>
  <text x="330" y="326" fill="#F8FAFC" font-family="Arial" font-size="42" font-weight="900">$18.420</text>
  <path d="M330 346 C372 314 402 370 444 332 C486 294 510 318 538 282" stroke="#22D3EE" stroke-width="7" stroke-linecap="round"/>
  <rect x="604" y="234" width="260" height="142" rx="22" fill="#0F172A" stroke="#FFFFFF" stroke-opacity=".08"/>
  <text x="630" y="276" fill="#94A3B8" font-family="Arial" font-size="16">Ordenes</text>
  <text x="630" y="326" fill="#F8FAFC" font-family="Arial" font-size="42" font-weight="900">327</text>
  <rect x="630" y="346" width="180" height="12" rx="6" fill="#1E293B"/>
  <rect x="630" y="346" width="132" height="12" rx="6" fill="#8B5CF6"/>
  <rect x="304" y="406" width="560" height="140" rx="22" fill="#0F172A" stroke="#FFFFFF" stroke-opacity=".08"/>
  <rect x="336" y="438" width="110" height="74" rx="16" fill="#22D3EE" opacity=".78"/>
  <rect x="472" y="438" width="110" height="74" rx="16" fill="#8B5CF6" opacity=".78"/>
  <rect x="608" y="438" width="110" height="74" rx="16" fill="#3B82F6" opacity=".78"/>
  <rect x="744" y="438" width="78" height="74" rx="16" fill="#34D399" opacity=".78"/>
</svg>
